<?xml version="1.0" encoding="UTF-8"?>
<svg version="1.1" xmlns="http://www.w3.org/2000/svg" width="500" height="500">
<path d="M0 0 C165 0 330 0 500 0 C500 165 500 330 500 500 C335 500 170 500 0 500 C0 335 0 170 0 0 Z " fill="#014958" transform="translate(0,0)"/>
<path d="M0 0 C0.93585938 0.17015625 1.87171875 0.3403125 2.8359375 0.515625 C16.19942257 3.39391409 30.11053463 11.74469445 40 21 C40.89847656 21.81984375 41.79695312 22.6396875 42.72265625 23.484375 C49.62465342 30.05408895 54.89298389 36.97621528 60 45 C60.43054688 45.66902344 60.86109375 46.33804688 61.3046875 47.02734375 C66.21733168 55.11987777 72 67.50298628 72 77 C62.76 77 53.52 77 44 77 C43.01 73.7 42.02 70.4 41 67 C34.78814595 51.24851293 25.64679653 40.41201152 11 32 C10.10796875 31.46246094 9.2159375 30.92492187 8.296875 30.37109375 C-9.38800811 20.51597034 -31.6762614 19.28502157 -50.95703125 24.67578125 C-61.61695052 27.98648905 -70.72105962 33.55792002 -79 41 C-79.91652344 41.77730469 -79.91652344 41.77730469 -80.8515625 42.5703125 C-91.68198188 52.41165248 -97.47920087 66.43760262 -102 80 C-97.38 80 -92.76 80 -88 80 C-87.95875 78.906875 -87.9175 77.81375 -87.875 76.6875 C-86.1700455 63.44490822 -74.82705336 51.78362354 -64.76953125 43.96875 C-52.05723571 34.93208293 -35.49032245 30.96643634 -20 33 C-1.98210242 36.31994928 14.07682757 45.11375212 24.9375 60.125 C33.34710373 73.01972573 37.17554859 86.30603913 37.1875 101.6875 C37.19974609 102.52861328 37.21199219 103.36972656 37.22460938 104.23632812 C37.22654297 105.04908203 37.22847656 105.86183594 37.23046875 106.69921875 C37.23457764 107.42971436 37.23868652 108.16020996 37.24291992 108.9128418 C36.96329462 111.31537115 36.13953767 112.88232997 35 115 C34.7525 115.99 34.505 116.98 34.25 118 C29.73779842 134.15437054 18.22689198 148.32877822 4.1875 157.1875 C2.46868771 158.14385135 0.73919138 159.08123074 -1 160 C-2.2684375 160.73283203 -2.2684375 160.73283203 -3.5625 161.48046875 C-15.6943729 167.63256907 -31.85751943 166.39768436 -44.73828125 163.08984375 C-59.78099166 158.0635968 -72.52019243 148.57625757 -81 135 C-81.48984375 133.87335938 -81.9796875 132.74671875 -82.484375 131.5859375 C-84.07766 127.96555227 -85.4373308 125.02252099 -88 122 C-92.75365817 120.59479775 -97.08537637 120.58419967 -102 121 C-97.70875104 130.60793923 -93.46992709 139.63242686 -87 148 C-86.24009766 149.11375 -86.24009766 149.11375 -85.46484375 150.25 C-75.11571089 164.89643864 -57.93162806 173.58054586 -40.55859375 176.59765625 C-18.79649807 179.05813469 1.26810772 173.23016434 18.625 159.875 C29.501966 150.60943637 36.74067903 138.14830243 42 125 C51.24 125 60.48 125 70 125 C60.3577763 153.9266711 41.15278357 179.25777622 13.8125 193.3125 C11.88304167 194.22552473 9.94591244 195.12258996 8 196 C7.18144531 196.37898437 6.36289062 196.75796875 5.51953125 197.1484375 C-5.71733957 202.02446954 -16.56296419 203.26614489 -28.6875 203.3125 C-29.73236572 203.31797852 -30.77723145 203.32345703 -31.85375977 203.32910156 C-55.57005947 203.11212146 -77.60040478 193.7298466 -94.6875 177.4375 C-95.8321875 176.2309375 -95.8321875 176.2309375 -97 175 C-97.52980469 174.50242187 -98.05960938 174.00484375 -98.60546875 173.4921875 C-114.14317808 158.74336849 -123.25382712 136.95407457 -125 116 C-111.47 116 -97.94 116 -84 116 C-81.03 121.61 -78.06 127.22 -75 133 C-68.00068032 141.29267223 -61.86193872 147.78848996 -52.125 152.625 C-50.95195312 153.21539062 -49.77890625 153.80578125 -48.5703125 154.4140625 C-35.83033103 160.073179 -19.7805713 160.03039515 -6.71484375 155.1875 C-5.81894531 154.795625 -4.92304688 154.40375 -4 154 C-3.19691406 153.649375 -2.39382813 153.29875 -1.56640625 152.9375 C10.38204711 146.97362726 17.49251679 137.21474053 24 126 C24.4434375 125.25621094 24.886875 124.51242188 25.34375 123.74609375 C27.46744399 119.89287624 28.56391058 116.03015589 29.6015625 111.7578125 C29.86533691 110.67902832 30.12911133 109.60024414 30.40087891 108.48876953 C30.59858887 107.66747559 30.79629883 106.84618164 31 106 C24.68223905 105.99090514 18.36596682 106.02823976 12.04858398 106.09765625 C9.90021013 106.11580924 7.75171954 106.12338603 5.60327148 106.12011719 C2.51194063 106.11725815 -0.57697284 106.15259365 -3.66796875 106.1953125 C-4.62648239 106.18621857 -5.58499603 106.17712463 -6.57255554 106.16775513 C-11.45061023 106.16680058 -11.45061023 106.16680058 -15.64517212 108.31878662 C-17.1562506 110.11350428 -17.1562506 110.11350428 -19 113 C-23.45913983 115.97275988 -27.77108436 115.62102957 -33 115 C-36 113.3125 -36 113.3125 -38 111 C-38.598125 110.319375 -39.19625 109.63875 -39.8125 108.9375 C-41.67920568 104.31985964 -41.77614466 99.9012098 -41 95 C-39.38735434 91.7619099 -37.06259073 89.80610332 -34.1875 87.625 C-29.38065912 86.25161689 -25.3564147 86.50438693 -20.75 88.1875 C-17.77193038 90.15031861 -15.97333721 92.03999419 -14 95 C-14 95.66 -14 96.32 -14 97 C0.85 97 15.7 97 31 97 C29.01738523 79.15646707 22.62061772 63.92486613 8.79296875 52.10546875 C-6.20045949 40.80273054 -23.15206622 37.97066964 -41.4296875 40.46875 C-54.89295678 43.40619057 -66.70985747 51.31080503 -74.4375 62.75 C-75.30956632 64.15571885 -76.16388117 65.57260711 -77 67 C-77.50402344 67.78375 -78.00804687 68.5675 -78.52734375 69.375 C-80.15210892 72.27113315 -81.13449115 75.08349139 -82.125 78.25 C-83.90391459 83.90391459 -83.90391459 83.90391459 -85 85 C-87.95705321 85.08868299 -90.89065056 85.11520296 -93.84765625 85.09765625 C-95.17729652 85.09553383 -95.17729652 85.09553383 -96.53379822 85.09336853 C-99.37673254 85.08775215 -102.21958931 85.07519691 -105.0625 85.0625 C-106.98502491 85.05748711 -108.90755104 85.05292384 -110.83007812 85.04882812 C-115.55341549 85.03777741 -120.27669458 85.02050183 -125 85 C-125.11353651 78.48756299 -124.32431728 73.19254875 -122.5 66.9375 C-122.23300293 66.01864014 -121.96600586 65.09978027 -121.69091797 64.15307617 C-117.14249685 49.24926909 -109.34629949 36.76443798 -98 26 C-97.54882812 25.49339844 -97.09765625 24.98679687 -96.6328125 24.46484375 C-86.36045109 13.24701624 -70.45443293 5.14046364 -56 1 C-55.11441406 0.73316406 -54.22882813 0.46632813 -53.31640625 0.19140625 C-35.77322549 -4.89392631 -17.67029694 -3.87795337 0 0 Z " fill="#ECF1F2" transform="translate(279,93)"/>
<path d="M0 0 C5.64926612 5.03444063 11.28225962 11.8199992 13.4765625 19.20703125 C13.53743252 21.53957049 13.54647514 23.87474553 13.4765625 26.20703125 C9.39376749 26.38124242 5.31192569 26.48785713 1.2265625 26.58203125 C0.06769531 26.63230469 -1.09117187 26.68257812 -2.28515625 26.734375 C-5.46874054 26.78958166 -8.38971506 26.7776889 -11.5234375 26.20703125 C-14.0546875 23.36328125 -14.0546875 23.36328125 -15.5234375 20.20703125 C-21.92632103 14.87129498 -29.71825773 14.29770793 -37.73046875 14.71875 C-44.26702847 15.56022267 -48.30855705 17.9921508 -52.8984375 22.58203125 C-57.36191054 29.79225693 -58.68053918 35.69638615 -57.5234375 44.20703125 C-55.27685482 50.96526969 -52.207456 55.75247693 -45.81640625 59.1015625 C-39.512415 61.91332234 -32.62671327 62.44372178 -25.99609375 60.4453125 C-22.61802915 59.02326534 -20.01411097 57.66197319 -17.30737305 55.15234375 C-13.88428292 52.76041337 -12.04794353 52.74083023 -7.91015625 52.81640625 C-6.66298828 52.82929688 -5.41582031 52.8421875 -4.13085938 52.85546875 C-2.83728516 52.88898438 -1.54371094 52.9225 -0.2109375 52.95703125 C1.10197266 52.97507813 2.41488281 52.993125 3.76757812 53.01171875 C7.00464738 53.05880339 10.24023303 53.12456083 13.4765625 53.20703125 C10.87638225 64.40339565 2.14124208 73.42138653 -7.2734375 79.51953125 C-20.6179095 86.93542204 -33.48599349 87.73185287 -48.13671875 84.234375 C-60.04523731 80.62198702 -69.66473323 72.98103584 -75.60839844 61.99804688 C-78.90359602 55.54832184 -80.04101813 50.61912808 -81.5234375 43.20703125 C-98.3534375 42.87703125 -115.1834375 42.54703125 -132.5234375 42.20703125 C-132.5234375 39.23703125 -132.5234375 36.26703125 -132.5234375 33.20703125 C-115.3634375 33.20703125 -98.2034375 33.20703125 -80.5234375 33.20703125 C-80.1934375 29.57703125 -79.8634375 25.94703125 -79.5234375 22.20703125 C-74.92704362 9.05734789 -66.83214467 0.49902213 -54.5234375 -5.79296875 C-37.21046384 -13.91040695 -14.90530639 -11.57631145 0 0 Z " fill="#EDF2F3" transform="translate(285.5234375,154.79296875)"/>
<path d="M0 0 C3.63 0 7.26 0 11 0 C11.495 1.175625 11.99 2.35125 12.5 3.5625 C23.32860663 27.72739059 38.01106545 47.18653688 62.92578125 57.73828125 C78.94653296 63.73981986 100.3088983 63.88585044 116 57 C116.82242188 56.72285156 117.64484375 56.44570313 118.4921875 56.16015625 C127.92246027 52.89119588 136.99080921 47.04119623 144 40 C144.66 40 145.32 40 146 40 C146.26296875 39.41476563 146.5259375 38.82953125 146.796875 38.2265625 C148.05390368 35.90024319 149.43839018 34.29269508 151.25 32.375 C157.440872 25.43761953 161.42603657 17.52252819 165 9 C170.28 9 175.56 9 181 9 C170.32450656 35.6887336 152.47610866 56.46663466 126.625 69.3125 C106.65348263 77.85811947 81.27957004 80.35732462 60.6171875 72.546875 C58.82667969 71.78117187 58.82667969 71.78117187 57 71 C56.38286133 70.73767578 55.76572266 70.47535156 55.12988281 70.20507812 C46.68438414 66.53082362 39.18077643 61.75354136 32 56 C31.23171875 55.39671875 30.4634375 54.7934375 29.671875 54.171875 C13.08070005 40.36523291 4.8115888 21.5649156 0 1 C0 0.67 0 0.34 0 0 Z " fill="#064D5C" transform="translate(160,214)"/>
<path d="M0 0 C1.84851563 -0.01740234 1.84851563 -0.01740234 3.734375 -0.03515625 C11.43712566 -0.0106252 18.07085333 0.96039327 25.375 3.375 C26.43332031 3.67921875 27.49164063 3.9834375 28.58203125 4.296875 C43.33803736 8.98693991 55.69539974 16.13331552 66.375 27.375 C66.96667969 27.91125 67.55835938 28.4475 68.16796875 29 C78.68519762 38.76454518 88.80010838 54.71526357 89.375 69.375 C84.425 69.375 79.475 69.375 74.375 69.375 C73.529375 67.126875 72.68375 64.87875 71.8125 62.5625 C63.8303586 42.23770504 49.32549033 28.1872121 29.375 19.375 C24.46546187 17.68872294 19.44298109 16.48660906 14.375 15.375 C13.21436035 15.11348145 13.21436035 15.11348145 12.03027344 14.84667969 C-8.77619616 11.15064261 -30.0000113 14.72794865 -47.625 26.375 C-64.03641951 38.06771293 -76.19526251 54.98816053 -81.15234375 74.65234375 C-81.625 76.375 -81.625 76.375 -82.625 77.375 C-84.47787502 77.44726502 -86.33333878 77.4588122 -88.1875 77.4375 C-89.70537109 77.42396484 -89.70537109 77.42396484 -91.25390625 77.41015625 C-92.03636719 77.39855469 -92.81882813 77.38695312 -93.625 77.375 C-92.29633638 60.43453879 -84.7069438 45.03057982 -73.625 32.375 C-73.08359375 31.69050781 -72.5421875 31.00601563 -71.984375 30.30078125 C-67.05711926 24.21346773 -61.03014269 19.81887807 -54.625 15.375 C-53.83351562 14.81683594 -53.04203125 14.25867188 -52.2265625 13.68359375 C-47.19580008 10.39556985 -41.94256492 8.20769607 -36.3125 6.1875 C-35.31827026 5.8303894 -35.31827026 5.8303894 -34.30395508 5.46606445 C-22.88210575 1.57048333 -12.06674457 -0.11431653 0 0 Z " fill="#084F5D" transform="translate(253.625,95.625)"/>
<path d="M0 0 C6.4825274 4.30429385 11.72403624 9.15489421 14.94140625 16.2890625 C14.94140625 17.2790625 14.94140625 18.2690625 14.94140625 19.2890625 C12.5436588 19.42478405 10.1536538 19.52343118 7.75390625 19.6015625 C6.74360352 19.6644043 6.74360352 19.6644043 5.71289062 19.72851562 C1.78050348 19.82442751 0.21451681 19.52700861 -2.7890625 16.91015625 C-3.53800781 16.04519531 -4.28695312 15.18023437 -5.05859375 14.2890625 C-7.12193421 12.94340553 -7.12193421 12.94340553 -9.18359375 12.0390625 C-9.84617187 11.72453125 -10.50875 11.41 -11.19140625 11.0859375 C-15.73009599 9.14892347 -19.88895045 9.07047491 -24.74609375 9.0390625 C-25.91301758 9.008125 -25.91301758 9.008125 -27.10351562 8.9765625 C-34.28299412 8.92865939 -41.15277947 10.48366353 -46.60546875 15.546875 C-53.24761714 23.51031097 -55.02899479 31.59060376 -54.4453125 41.64453125 C-53.6287479 49.34003403 -50.91950917 55.14045449 -45.05859375 60.2890625 C-37.16907327 66.24001509 -28.49176968 66.32154942 -19.05859375 65.2890625 C-14.43520706 64.1725119 -9.85311907 62.95540744 -6.30859375 59.6640625 C-2.79426083 57.51641461 0.66357265 57.97130917 4.69140625 58.1015625 C5.88056641 58.12186523 5.88056641 58.12186523 7.09375 58.14257812 C9.04326189 58.17781027 10.99242251 58.23161429 12.94140625 58.2890625 C7.20093531 68.17451532 -1.62370038 74.53760081 -12.29296875 78.37109375 C-23.09359226 81.00402583 -35.16680351 80.68307564 -45.05859375 75.2890625 C-55.61085818 68.64841333 -62.93043882 60.06095424 -66.328125 48.0234375 C-68.64596362 36.17395235 -68.05660557 24.61415319 -61.73828125 14.08984375 C-47.84703268 -5.83612756 -21.34072553 -11.67279768 0 0 Z " fill="#074E5D" transform="translate(277.05859375,155.7109375)"/>
<path d="M0 0 C0.87269531 -0.04898437 1.74539063 -0.09796875 2.64453125 -0.1484375 C5.1875 0.375 5.1875 0.375 7.1875 2.296875 C9.85468734 6.40184302 12.13175148 10.65185309 14.375 15 C14.82552734 15.85851562 15.27605469 16.71703125 15.74023438 17.6015625 C19.04133799 23.93651396 19.04133799 23.93651396 20.1875 27.375 C20.5175 18.465 20.8475 9.555 21.1875 0.375 C23.8275 0.375 26.4675 0.375 29.1875 0.375 C29.23684926 6.03498046 29.27319529 11.69483636 29.29736328 17.35498047 C29.30743582 19.28143494 29.32109443 21.20787408 29.33837891 23.13427734 C29.36257241 25.89945252 29.37397036 28.664426 29.3828125 31.4296875 C29.39313507 32.2943161 29.40345764 33.1589447 29.41409302 34.04977417 C29.41449106 36.15953521 29.31015243 38.26880718 29.1875 40.375 C27.1875 42.375 27.1875 42.375 23.375 43 C20.87751016 42.91032352 19.65721676 42.824412 17.83203125 41.078125 C16.47149636 38.90498394 15.34105868 36.66544744 14.1875 34.375 C13.17412609 32.63063502 12.16033383 30.88649636 11.13867188 29.14697266 C8.12684747 24.01293259 5.44790296 18.88560971 3.1875 13.375 C3.16244385 14.21796631 3.1373877 15.06093262 3.11157227 15.92944336 C3.01661845 19.04741674 2.91737552 22.16521503 2.81518555 25.28295898 C2.77178777 26.63414147 2.7301163 27.98538053 2.69018555 29.33666992 C2.63260048 31.27536701 2.56835702 33.21386276 2.50390625 35.15234375 C2.44891968 36.90405884 2.44891968 36.90405884 2.39282227 38.69116211 C2.1875 41.375 2.1875 41.375 1.1875 42.375 C-1.14547433 42.41592937 -3.47955225 42.41741723 -5.8125 42.375 C-5.83714638 36.55428378 -5.8553343 30.73359766 -5.86743164 24.9128418 C-5.87247267 22.93106559 -5.87930538 20.94929311 -5.88793945 18.9675293 C-5.90001515 16.12547891 -5.90573045 13.28347753 -5.91015625 10.44140625 C-5.91531754 9.54974258 -5.92047882 8.65807892 -5.92579651 7.73939514 C-5.92599177 5.61759399 -5.8746003 3.4958922 -5.8125 1.375 C-4.16155878 -0.27594122 -2.26764063 0.08632307 0 0 Z " fill="#EFF3F4" transform="translate(352.8125,320.625)"/>
<path d="M0 0 C0.85142578 -0.020625 1.70285156 -0.04125 2.58007812 -0.0625 C8.68741733 -0.10028709 12.67261402 0.9000642 17.66015625 4.6328125 C20.0581781 7.99817198 19.38661188 12.33106236 18.8125 16.25 C17 19.375 17 19.375 14.8125 21.25 C13.8225 21.25 12.8325 21.25 11.8125 21.25 C12.39257812 22.06791016 12.39257812 22.06791016 12.984375 22.90234375 C21.8125 35.68564356 21.8125 35.68564356 21.8125 42.25 C18.5125 42.25 15.2125 42.25 11.8125 42.25 C11.48636719 41.27417969 11.16023438 40.29835938 10.82421875 39.29296875 C10.38327166 38.00765489 9.94183992 36.72250722 9.5 35.4375 C9.28666016 34.79490234 9.07332031 34.15230469 8.85351562 33.49023438 C7.2559479 28.70931282 7.2559479 28.70931282 3.8125 25.25 C1.20638923 24.52802838 1.20638923 24.52802838 -1.1875 24.25 C-1.17589844 25.46558594 -1.16429687 26.68117188 -1.15234375 27.93359375 C-1.14296722 29.51822764 -1.13386687 31.10286318 -1.125 32.6875 C-1.11662109 33.48994141 -1.10824219 34.29238281 -1.09960938 35.11914062 C-1.0909857 37.16295221 -1.1352185 39.20683902 -1.1875 41.25 C-2.1875 42.25 -2.1875 42.25 -5.6875 42.375 C-9.1875 42.25 -9.1875 42.25 -10.1875 41.25 C-10.28860353 38.3046443 -10.32719279 35.3832244 -10.3203125 32.4375 C-10.32126923 31.55344482 -10.32222595 30.66938965 -10.32321167 29.75854492 C-10.32389351 27.88557871 -10.32203893 26.01261014 -10.31787109 24.13964844 C-10.31252289 21.26231612 -10.31781593 18.38513992 -10.32421875 15.5078125 C-10.32355797 13.69270799 -10.32227681 11.87760357 -10.3203125 10.0625 C-10.32233673 9.19584717 -10.32436096 8.32919434 -10.32644653 7.4362793 C-10.29190694 -1.30256805 -7.79129528 0.04613646 0 0 Z " fill="#EFF3F4" transform="translate(131.1875,320.75)"/>
<path d="M0 0 C1.00023193 0.00523682 2.00046387 0.01047363 3.03100586 0.01586914 C4.1105957 0.0190918 5.19018555 0.02231445 6.30249023 0.02563477 C8.00695312 0.03820312 8.00695312 0.03820312 9.74584961 0.05102539 C11.45611328 0.05779297 11.45611328 0.05779297 13.20092773 0.06469727 C16.02845312 0.07652792 18.85587601 0.09301129 21.68334961 0.11352539 C21.72589317 2.11307285 21.72415744 4.11394175 21.68334961 6.11352539 C20.68334961 7.11352539 20.68334961 7.11352539 17.30444336 7.21118164 C15.90987883 7.20450908 14.51533218 7.19255071 13.12084961 7.17602539 C12.40993164 7.17151367 11.69901367 7.16700195 10.96655273 7.16235352 C9.20544948 7.15053403 7.44438925 7.13259802 5.68334961 7.11352539 C5.68334961 10.41352539 5.68334961 13.71352539 5.68334961 17.11352539 C10.30334961 17.11352539 14.92334961 17.11352539 19.68334961 17.11352539 C19.68334961 19.09352539 19.68334961 21.07352539 19.68334961 23.11352539 C15.06334961 23.11352539 10.44334961 23.11352539 5.68334961 23.11352539 C5.68334961 27.07352539 5.68334961 31.03352539 5.68334961 35.11352539 C10.96334961 35.11352539 16.24334961 35.11352539 21.68334961 35.11352539 C21.68334961 37.42352539 21.68334961 39.73352539 21.68334961 42.11352539 C17.70419802 42.14239523 13.72507308 42.16027945 9.74584961 42.17602539 C8.04138672 42.18859375 8.04138672 42.18859375 6.30249023 42.20141602 C5.22290039 42.20463867 4.14331055 42.20786133 3.03100586 42.21118164 C1.53065796 42.21903687 1.53065796 42.21903687 0 42.22705078 C-2.31665039 42.11352539 -2.31665039 42.11352539 -3.31665039 41.11352539 C-3.41775392 38.16816969 -3.45634318 35.24674979 -3.44946289 32.30102539 C-3.45041962 31.41697021 -3.45137634 30.53291504 -3.45236206 29.62207031 C-3.45304391 27.7491041 -3.45118932 25.87613553 -3.44702148 24.00317383 C-3.44167328 21.12584152 -3.44696632 18.24866531 -3.45336914 15.37133789 C-3.45270836 13.55623338 -3.4514272 11.74112896 -3.44946289 9.92602539 C-3.45148712 9.05937256 -3.45351135 8.19271973 -3.45559692 7.29980469 C-3.42740887 0.16795712 -3.42740887 0.16795712 0 0 Z " fill="#ECF2F3" transform="translate(173.316650390625,320.886474609375)"/>
<path d="M0 0 C1.00023193 0.00523682 2.00046387 0.01047363 3.03100586 0.01586914 C4.1105957 0.0190918 5.19018555 0.02231445 6.30249023 0.02563477 C8.00695312 0.03820312 8.00695312 0.03820312 9.74584961 0.05102539 C11.45611328 0.05779297 11.45611328 0.05779297 13.20092773 0.06469727 C16.02845312 0.07652792 18.85587601 0.09301129 21.68334961 0.11352539 C21.72589317 2.11307285 21.72415744 4.11394175 21.68334961 6.11352539 C20.68334961 7.11352539 20.68334961 7.11352539 17.30444336 7.21118164 C15.90987883 7.20450908 14.51533218 7.19255071 13.12084961 7.17602539 C12.40993164 7.17151367 11.69901367 7.16700195 10.96655273 7.16235352 C9.20544948 7.15053403 7.44438925 7.13259802 5.68334961 7.11352539 C5.68334961 10.41352539 5.68334961 13.71352539 5.68334961 17.11352539 C9.97334961 17.11352539 14.26334961 17.11352539 18.68334961 17.11352539 C18.68334961 19.09352539 18.68334961 21.07352539 18.68334961 23.11352539 C14.39334961 23.11352539 10.10334961 23.11352539 5.68334961 23.11352539 C5.68334961 27.07352539 5.68334961 31.03352539 5.68334961 35.11352539 C10.96334961 35.11352539 16.24334961 35.11352539 21.68334961 35.11352539 C21.68334961 37.09352539 21.68334961 39.07352539 21.68334961 41.11352539 C19.99818007 42.79869493 17.89567173 42.24360558 15.58959961 42.24633789 C14.55963867 42.24762695 13.52967773 42.24891602 12.46850586 42.25024414 C10.84235352 42.24444336 10.84235352 42.24444336 9.18334961 42.23852539 C8.09924805 42.24239258 7.01514648 42.24625977 5.89819336 42.25024414 C4.86823242 42.24895508 3.83827148 42.24766602 2.77709961 42.24633789 C1.82512695 42.24520996 0.8731543 42.24408203 -0.10766602 42.24291992 C-2.31665039 42.11352539 -2.31665039 42.11352539 -3.31665039 41.11352539 C-3.41775392 38.16816969 -3.45634318 35.24674979 -3.44946289 32.30102539 C-3.45041962 31.41697021 -3.45137634 30.53291504 -3.45236206 29.62207031 C-3.45304391 27.7491041 -3.45118932 25.87613553 -3.44702148 24.00317383 C-3.44167328 21.12584152 -3.44696632 18.24866531 -3.45336914 15.37133789 C-3.45270836 13.55623338 -3.4514272 11.74112896 -3.44946289 9.92602539 C-3.45148712 9.05937256 -3.45351135 8.19271973 -3.45559692 7.29980469 C-3.42740887 0.16795712 -3.42740887 0.16795712 0 0 Z " fill="#EEF2F3" transform="translate(306.316650390625,320.886474609375)"/>
<path d="M0 0 C3.625 1.5 3.625 1.5 6 3 C6 4.98 6 6.96 6 9 C5.175 8.835 4.35 8.67 3.5 8.5 C-0.41272317 7.94103955 -4.05183173 7.93192813 -8 8 C-8 9.98 -8 11.96 -8 14 C-7.01257813 14.54269531 -6.02515625 15.08539063 -5.0078125 15.64453125 C-3.71333285 16.36681338 -2.41907342 17.08949029 -1.125 17.8125 C-0.47402344 18.16892578 0.17695313 18.52535156 0.84765625 18.89257812 C4.06597903 20.70081103 5.9196783 21.87951745 8 25 C8.7239175 29.43399468 9.17664641 34.08098993 6.76171875 38.01953125 C2.15705294 42.71560482 -1.62034486 43.17045555 -7.9375 43.25 C-9.77634766 43.28867187 -9.77634766 43.28867187 -11.65234375 43.328125 C-15.18708684 42.98166243 -16.61428793 42.59882779 -19 40 C-19.25 36.3125 -19.25 36.3125 -19 33 C-16.83125748 33.50603992 -15.00032373 33.99983813 -13 35 C-11.29297265 35.06996014 -9.58331997 35.08440154 -7.875 35.0625 C-6.96492187 35.05347656 -6.05484375 35.04445313 -5.1171875 35.03515625 C-4.41851562 35.02355469 -3.71984375 35.01195312 -3 35 C-2.34 32.69 -1.68 30.38 -1 28 C-1.66 27.7525 -2.32 27.505 -3 27.25 C-3.99 26.8375 -4.98 26.425 -6 26 C-6.65097656 25.731875 -7.30195313 25.46375 -7.97265625 25.1875 C-12.84392352 23.00225861 -15.71456929 21.04699281 -18 16 C-18.58196398 12.86293702 -18.68052393 10.12579634 -18 7 C-12.78365321 0.37382976 -8.06213772 -0.86246124 0 0 Z " fill="#EFF4F4" transform="translate(230,320)"/>
<path d="M0 0 C1.92167077 0.9557336 3.78945259 2.01833776 5.64453125 3.09765625 C5.64453125 5.07765625 5.64453125 7.05765625 5.64453125 9.09765625 C4.32453125 9.09765625 3.00453125 9.09765625 1.64453125 9.09765625 C1.31453125 8.76765625 0.98453125 8.43765625 0.64453125 8.09765625 C-3.41322829 7.61268953 -7.302219 7.55758663 -11.35546875 8.09765625 C-14.68050436 10.81813993 -15.20296055 12.75264415 -15.6796875 16.95703125 C-15.88670825 22.69650299 -15.69318795 27.21945126 -12.35546875 32.09765625 C-10.37559064 34.51708311 -10.37559064 34.51708311 -6.54296875 34.34765625 C-3.07413472 34.27224681 -0.52834242 33.54811279 2.64453125 32.09765625 C3.63453125 32.09765625 4.62453125 32.09765625 5.64453125 32.09765625 C6.01953125 34.84765625 6.01953125 34.84765625 5.64453125 38.09765625 C2.67165061 41.42028756 0.76555042 41.96779824 -3.66015625 42.48046875 C-8.91205954 42.64701959 -13.12015555 42.63011883 -17.98046875 40.53515625 C-24.47746005 33.8671915 -25.66927907 27.16857544 -25.5703125 18.140625 C-25.17631864 12.56023921 -23.64688507 8.66829772 -20.04296875 4.28515625 C-13.9242069 -0.6952313 -7.61682729 -2.91788906 0 0 Z " fill="#F0F4F5" transform="translate(98.35546875,320.90234375)"/>
<path d="M0 0 C2.5 1.5625 2.5 1.5625 3.5 2.5625 C3.54092937 4.89547433 3.54241723 7.22955225 3.5 9.5625 C-2.25 7.6875 -2.25 7.6875 -4.5 6.5625 C-8.29194611 6.14117265 -10.03454193 6.27288164 -13.3125 8.3125 C-17.31483074 12.42918305 -16.77060594 17.36519159 -16.7265625 22.86328125 C-16.34552455 27.40288852 -14.67126988 30.39123012 -11.5 33.5625 C-6.21545462 34.28119817 -1.43117852 33.5855476 3.5 31.5625 C3.5 33.8725 3.5 36.1825 3.5 38.5625 C-2.1729168 42.34444453 -7.84139345 42.20451441 -14.5 41.5625 C-19.24138421 40.15764542 -22.52245237 37.41136336 -25.359375 33.40234375 C-26.95067947 29.4404316 -27.08786144 25.80190966 -27.125 21.5625 C-27.1357959 20.80316162 -27.1465918 20.04382324 -27.15771484 19.26147461 C-26.98912072 12.47152938 -24.96807856 6.96729449 -20.0625 2.1875 C-13.55322912 -1.94033031 -7.23447551 -2.97130244 0 0 Z " fill="#F1F5F5" transform="translate(281.5,321.4375)"/>
<path d="M0 0 C10.56 0 21.12 0 32 0 C32 2.31 32 4.62 32 7 C28.04 7 24.08 7 20 7 C20 18.55 20 30.1 20 42 C17.36 42 14.72 42 12 42 C12 30.45 12 18.9 12 7 C8.37 7 4.74 7 1 7 C0.67 6.67 0.34 6.34 0 6 C0 4.02 0 2.04 0 0 Z " fill="#F5F8F8" transform="translate(398,321)"/>
<path d="M0 0 C3.125 1.875 3.125 1.875 5 5 C5.95733069 9.79463118 5.90921304 14.42777953 3.1875 18.625 C-0.85311906 21.63565734 -3.51380464 21.82003016 -8.4609375 21.5 C-11 21 -11 21 -13.6875 19.1875 C-15.65481136 14.40974383 -15.84617482 10.08467209 -15 5 C-11.50416795 -0.94291449 -6.33076729 -1.24539684 0 0 Z " fill="#EAF0F1" transform="translate(261,389)"/>
<path d="M0 0 C1.98 0 3.96 0 6 0 C6.33 3.3 6.66 6.6 7 10 C7.33 9.67 7.66 9.34 8 9 C14.13021564 8.42167777 14.13021564 8.42167777 17.21484375 10.47265625 C19.82633688 14.16989051 19.43999997 17.34346233 19.25 21.75 C19.23195312 22.54277344 19.21390625 23.33554687 19.1953125 24.15234375 C19.14833082 26.10208348 19.07659044 28.05119878 19 30 C17.02 30 15.04 30 13 30 C12.67 25.05 12.34 20.1 12 15 C10.35 15.33 8.7 15.66 7 16 C6.67 20.62 6.34 25.24 6 30 C4.02 30 2.04 30 0 30 C0 20.1 0 10.2 0 0 Z " fill="#E2EAEB" transform="translate(184,380)"/>
<path d="M0 0 C3 2.0625 3 2.0625 5 5 C5.3125 8.8125 5.3125 8.8125 5 12 C0.71 12 -3.58 12 -8 12 C-7.34 13.32 -6.68 14.64 -6 16 C-2.7 16 0.6 16 4 16 C4 17.32 4 18.64 4 20 C0.02547607 21.98726197 -4.67749709 21.52318479 -9 21 C-12.1875 19.125 -12.1875 19.125 -14 16 C-14.8983598 11.01818655 -14.79180795 7.29328631 -12.125 2.9375 C-8.44907849 -0.41407549 -4.84020651 -0.80515864 0 0 Z " fill="#E7EDEF" transform="translate(316,389)"/>
<path d="M0 0 C2.4375 0.9375 2.4375 0.9375 4 3 C4.62952836 6.03464952 4.81954546 8.88715911 5 12 C0.71 12 -3.58 12 -8 12 C-7.34 13.32 -6.68 14.64 -6 16 C-2.7 16 0.6 16 4 16 C3.67 17.65 3.34 19.3 3 21 C1.08458862 21.10841951 -0.83259773 21.18578079 -2.75 21.25 C-4.35101563 21.31960938 -4.35101563 21.31960938 -5.984375 21.390625 C-9 21 -9 21 -11.328125 19.171875 C-14.32923046 15.27324267 -14.40607257 11.79165633 -14 7 C-10.31167998 0.36102397 -7.46147326 -0.75353492 0 0 Z " fill="#E6EDEE" transform="translate(141,389)"/>
<path d="M0 0 C3 1.5 3 1.5 5 4 C5.41175039 6.80204162 5.23807011 9.14315872 5 12 C0.71 12 -3.58 12 -8 12 C-7.34 13.32 -6.68 14.64 -6 16 C-3.58320293 16.70176588 -3.58320293 16.70176588 -0.875 16.75 C0.03507812 16.80671875 0.94515625 16.8634375 1.8828125 16.921875 C2.93082031 16.96054687 2.93082031 16.96054687 4 17 C3.67 18.32 3.34 19.64 3 21 C-7.83666275 21.76674501 -7.83666275 21.76674501 -11.75 19.1875 C-13.62488032 14.40655519 -13.85693236 10.05817595 -13 5 C-9.70054157 -0.25851187 -5.83590803 -1.23542408 0 0 Z " fill="#F0F4F5" transform="translate(397,389)"/>
<path d="M0 0 C1.32 0 2.64 0 4 0 C4.33 0.66 4.66 1.32 5 2 C5.66 1.34 6.32 0.68 7 0 C10.71080071 -0.41231119 13.04963017 -0.63469928 16.2109375 1.4765625 C18.82950896 5.17000609 18.44001326 8.34315409 18.25 12.75 C18.23195312 13.54277344 18.21390625 14.33554687 18.1953125 15.15234375 C18.14833082 17.10208348 18.07659044 19.05119878 18 21 C16.02 21 14.04 21 12 21 C11.67 16.05 11.34 11.1 11 6 C9.35 6.33 7.7 6.66 6 7 C5.67 11.62 5.34 16.24 5 21 C3.35 21 1.7 21 0 21 C0 14.07 0 7.14 0 0 Z " fill="#E9EFF1" transform="translate(216,389)"/>
<path d="M0 0 C7.26 0 14.52 0 22 0 C21.67 1.65 21.34 3.3 21 5 C18.69 5 16.38 5 14 5 C14 12.59 14 20.18 14 28 C12.02 28 10.04 28 8 28 C8 20.41 8 12.82 8 5 C5.69 5 3.38 5 1 5 C0.67 3.35 0.34 1.7 0 0 Z " fill="#E6EDEE" transform="translate(100,382)"/>
<path d="M0 0 C3.73152858 1.17474048 5.26415485 1.76958156 7.375 5.0625 C8.16933858 9.050571 7.97350547 12.02162093 5.9375 15.5625 C2.12543263 17.79395407 -1.32226459 17.96252172 -5.625 17.0625 C-8.93004612 14.40234093 -9.50772732 12.71922698 -10.25 8.5625 C-9.625 5.0625 -9.625 5.0625 -7.0625 2.0625 C-3.625 0.0625 -3.625 0.0625 0 0 Z " fill="#0A505F" transform="translate(252.625,184.9375)"/>
<path d="M0 0 C1.98 0 3.96 0 6 0 C6.27714844 0.85464844 6.55429687 1.70929688 6.83984375 2.58984375 C7.20207031 3.69457031 7.56429688 4.79929687 7.9375 5.9375 C8.29714844 7.03964844 8.65679687 8.14179688 9.02734375 9.27734375 C9.73856668 11.88123475 9.73856668 11.88123475 11 13 C12.32 8.71 13.64 4.42 15 0 C16.65 0 18.3 0 20 0 C19.32798701 4.55708812 18.27128438 8.88637387 17 13.3125 C16.4740625 15.16294922 16.4740625 15.16294922 15.9375 17.05078125 C15 20 15 20 14 21 C10.5625 21.25 10.5625 21.25 7 21 C4.79171873 17.6875781 3.99424632 14.89169865 2.9375 11.0625 C2.59589844 9.83660156 2.25429688 8.61070312 1.90234375 7.34765625 C1.24340551 4.90302391 0.59804305 2.45999153 0 0 Z " fill="#EAF0F1" transform="translate(354,389)"/>
<path d="M0 0 C0.33 1.65 0.66 3.3 1 5 C-1.31 5 -3.62 5 -6 5 C-6 5.66 -6 6.32 -6 7 C-5.43410156 7.21914063 -4.86820312 7.43828125 -4.28515625 7.6640625 C1.685602 10.2454448 1.685602 10.2454448 3.25 14 C3 17 3 17 1.6875 19.375 C-2.39252328 21.84199082 -6.34828976 21.31958315 -11 21 C-11.33 19.35 -11.66 17.7 -12 16 C-9.03 16.33 -6.06 16.66 -3 17 C-3.71004465 13.72143001 -3.71004465 13.72143001 -6.9375 12.4375 C-7.948125 11.963125 -8.95875 11.48875 -10 11 C-12 9 -12 9 -12.375 6.0625 C-12 3 -12 3 -10.5 1.125 C-6.87739877 -0.50517055 -3.95453342 -0.19772667 0 0 Z " fill="#E6EDEF" transform="translate(289,389)"/>
<path d="M0 0 C3.875 0.5 3.875 0.5 6.875 2.5 C6.875 3.82 6.875 5.14 6.875 6.5 C5.575625 6.314375 4.27625 6.12875 2.9375 5.9375 C0.78924457 5.6018371 0.78924457 5.6018371 -1.125 5.5 C-2.3495178 6.50469623 -2.3495178 6.50469623 -2.2578125 8.53125 C-2.25523437 9.3459375 -2.25265625 10.160625 -2.25 11 C-2.25257813 11.8146875 -2.25515625 12.629375 -2.2578125 13.46875 C-2.3495178 15.49530377 -2.3495178 15.49530377 -1.125 16.5 C1.93981021 16.6613058 3.93049278 16.48150241 6.875 15.5 C6.875 17.15 6.875 18.8 6.875 20.5 C3.13518334 22.36990833 -1.06195631 22.16843622 -5.125 21.5 C-8.52110969 18.34646957 -9.3755748 15.49628763 -9.6875 11 C-9.51883832 7.78454665 -8.97416408 5.58901325 -7.125 2.9375 C-4.13230094 0.50593201 -3.58749788 0.112523 0 0 Z " fill="#E7EEEF" transform="translate(166.125,388.5)"/>
<path d="M0 0 C4 0 8 0 12 0 C12 1.65 12 3.3 12 5 C10.7934375 5.4640625 10.7934375 5.4640625 9.5625 5.9375 C7.10919595 6.76335345 7.10919595 6.76335345 6 8 C5.76518307 10.18292774 5.58636677 12.37203174 5.4375 14.5625 C5.31181641 16.35880859 5.31181641 16.35880859 5.18359375 18.19140625 C5.12300781 19.11824219 5.06242187 20.04507812 5 21 C3.35 21 1.7 21 0 21 C0 14.07 0 7.14 0 0 Z " fill="#EBF0F1" transform="translate(333,389)"/>
<path d="M0 0 C6.22222222 -0.35897436 6.22222222 -0.35897436 9.4375 1.125 C11 3 11 3 11.4375 6 C11 9 11 9 10 10.875 C6.74686316 12.70488947 3.68609891 12.18128355 0 12 C0 8.04 0 4.08 0 0 Z " fill="#0F5362" transform="translate(130,327)"/>
<path d="M0 0 C2.375 0.75 2.375 0.75 3.375 1.75 C3.54296875 3.74609375 3.54296875 3.74609375 3.5625 6.1875 C3.57667969 6.99058594 3.59085937 7.79367187 3.60546875 8.62109375 C3.375 10.75 3.375 10.75 1.375 12.75 C-1.125 13.0625 -1.125 13.0625 -3.625 12.75 C-6.08824069 9.05513897 -6.01491688 7.11706908 -5.625 2.75 C-3.94255302 -0.08359492 -3.2944541 -0.31375753 0 0 Z " fill="#0E5361" transform="translate(256.625,393.25)"/>
<path d="M0 0 C1.2065625 0.0309375 1.2065625 0.0309375 2.4375 0.0625 C2.7675 1.7125 3.0975 3.3625 3.4375 5.0625 C0.7975 5.0625 -1.8425 5.0625 -4.5625 5.0625 C-3.43829114 0.08386076 -3.43829114 0.08386076 0 0 Z " fill="#2E6A76" transform="translate(393.5625,392.9375)"/>
<path d="M0 0 C2.375 -0.125 2.375 -0.125 5 0 C7 2 7 2 7 5 C4.36 5 1.72 5 -1 5 C-0.67 3.35 -0.34 1.7 0 0 Z " fill="#2F6A76" transform="translate(309,393)"/>
<path d="M0 0 C0.66 0.33 1.32 0.66 2 1 C-2.62 5.62 -7.24 10.24 -12 15 C-12.66 14.67 -13.32 14.34 -14 14 C-10.12814498 9.03918575 -5.79125711 5.06361292 -1 1 C-0.67 0.67 -0.34 0.34 0 0 Z " fill="#DDE6E8" transform="translate(188,112)"/>
<path d="M0 0 C1.65 0 3.3 0 5 0 C5.33 1.32 5.66 2.64 6 4 C3.69 4 1.38 4 -1 4 C-0.67 2.68 -0.34 1.36 0 0 Z " fill="#175966" transform="translate(134,393)"/>
<path d="M0 0 C0.66 0.33 1.32 0.66 2 1 C1.030625 1.825 0.06125 2.65 -0.9375 3.5 C-4.61012754 7.1121372 -4.82612422 9.95760232 -5 15 C-5.33 15 -5.66 15 -6 15 C-6.78734859 6.96904441 -6.78734859 6.96904441 -3.5625 3 C-2.716875 2.34 -1.87125 1.68 -1 1 C-0.67 0.67 -0.34 0.34 0 0 Z " fill="#CDDBDE" transform="translate(218,321)"/>
<path d="M0 0 C0.8971875 0.309375 0.8971875 0.309375 1.8125 0.625 C0.69875 1.2746875 0.69875 1.2746875 -0.4375 1.9375 C-2.80583926 3.39079909 -4.99674065 4.92107606 -7.1875 6.625 C-4.6484375 -0.796875 -4.6484375 -0.796875 0 0 Z " fill="#D8E3E5" transform="translate(135.1875,389.375)"/>
<path d="M0 0 C0.8971875 0.309375 0.8971875 0.309375 1.8125 0.625 C0.69875 1.2746875 0.69875 1.2746875 -0.4375 1.9375 C-2.80583926 3.39079909 -4.99674065 4.92107606 -7.1875 6.625 C-4.6484375 -0.796875 -4.6484375 -0.796875 0 0 Z " fill="#CDDBDE" transform="translate(391.1875,389.375)"/>
</svg>
